<svg xmlns="http://www.w3.org/2000/svg" xmlns:xlink="http://www.w3.org/1999/xlink" width="814.289" height="615.45" viewBox="0 0 814.289 615.45">
  <defs>
    <linearGradient id="linear-gradient" x1="0.499" y1="1.007" x2="0.499" y2="0.007" gradientUnits="objectBoundingBox">
      <stop offset="0" stop-color="gray" stop-opacity="0.251"/>
      <stop offset="0.54" stop-color="gray" stop-opacity="0.122"/>
      <stop offset="1" stop-color="gray" stop-opacity="0.102"/>
    </linearGradient>
    <linearGradient id="linear-gradient-2" x1="0.5" y1="0.999" x2="0.5" y2="0.036" xlink:href="#linear-gradient"/>
    <linearGradient id="linear-gradient-3" x1="0.5" y1="0.999" x2="0.5" y2="0.015" xlink:href="#linear-gradient"/>
    <linearGradient id="linear-gradient-4" x1="0.5" y1="1.001" x2="0.5" y2="0.016" gradientUnits="objectBoundingBox">
      <stop offset="0" stop-opacity="0.09"/>
      <stop offset="0.55" stop-opacity="0.071"/>
      <stop offset="1" stop-opacity="0.02"/>
    </linearGradient>
    <linearGradient id="linear-gradient-5" x1="0.499" y1="0.999" x2="0.499" y2="0.015" xlink:href="#linear-gradient"/>
  </defs>
  <g id="Group_1" data-name="Group 1" transform="translate(-960 -763)">
    <g id="undraw_Devices_e67q" transform="translate(960.019 763)">
      <path id="Path_1" data-name="Path 1" d="M765.64,538.41S781.71,648.5,875.73,685.08l-190.34.26-190.34.26c93.92-36.83,109.71-147,109.71-147Z" transform="translate(-192.86 -142.28)" fill="#e0e0e0"/>
      <rect id="Rectangle_4" data-name="Rectangle 4" width="384.26" height="23.26" transform="translate(300.299 543.32) rotate(-0.08)" fill="url(#linear-gradient)"/>
      <rect id="Rectangle_5" data-name="Rectangle 5" width="380.67" height="17.94" transform="translate(302.209 543.317) rotate(-0.08)" fill="#f5f5f5"/>
      <path id="Path_2" data-name="Path 2" d="M994.22,142.28l-619.08.85c-6.85,0-12.4,5.83-12.39,13l.48,361.19v12c0,27.44,21.33,49.66,47.55,49.62l548.93-.76c26.23,0,47.46-22.31,47.42-49.75v-12l-.48-361.19C1006.64,148.07,1001.07,142.27,994.22,142.28Z" transform="translate(-192.86 -142.28)" fill="url(#linear-gradient-2)"/>
      <path id="Path_3" data-name="Path 3" d="M381.51,153.13H988.35a10.75,10.75,0,0,1,10.75,10.75V509.16H370.75V163.88a10.75,10.75,0,0,1,10.75-10.75Z" transform="translate(-193.32 -141.33)" fill="#fff"/>
      <path id="Path_4" data-name="Path 4" d="M958.26,567.51l-546,.75A41.15,41.15,0,0,1,371,527.17V509.6l628.35-.87v17.58a41.15,41.15,0,0,1-41.09,41.2Z" transform="translate(-192.86 -142.28)" fill="#f5f5f5"/>
      <rect id="Rectangle_6" data-name="Rectangle 6" width="568.62" height="287.41" transform="translate(208.755 40.067) rotate(-0.08)" fill="#2b5c6b"/>
      <rect id="Rectangle_7" data-name="Rectangle 7" width="296" height="458.84" rx="17.17" transform="translate(97.957 148.632) rotate(-0.08)" fill="url(#linear-gradient-3)"/>
      <rect id="Rectangle_8" data-name="Rectangle 8" width="255.62" height="384.84" transform="translate(118.726 183.653) rotate(-0.08)" fill="url(#linear-gradient-4)"/>
      <rect id="Rectangle_9" data-name="Rectangle 9" width="277.99" height="437.71" rx="17.17" transform="translate(106.977 155.56) rotate(-0.08)" fill="#fff"/>
      <rect id="Rectangle_10" data-name="Rectangle 10" width="240.06" height="367.12" transform="translate(126.02 189.42)" fill="#2b5c6b"/>
      <ellipse id="Ellipse_1" data-name="Ellipse 1" cx="9.89" cy="10.13" rx="9.89" ry="10.13" transform="translate(236.8 564.64)" fill="#dbdbdb"/>
      <ellipse id="Ellipse_2" data-name="Ellipse 2" cx="3.3" cy="3.38" rx="3.3" ry="3.38" transform="translate(201.647 169.608) rotate(-0.08)" fill="#dbdbdb"/>
      <rect id="Rectangle_11" data-name="Rectangle 11" width="42.87" height="3.38" rx="1.43" transform="translate(221.428 170.93) rotate(-0.08)" fill="#dbdbdb"/>
      <rect id="Rectangle_12" data-name="Rectangle 12" width="195.96" height="356.89" rx="10" transform="translate(-0.019 258.56) rotate(-0.08)" fill="url(#linear-gradient-5)"/>
      <rect id="Rectangle_13" data-name="Rectangle 13" width="186.94" height="342.74" rx="10" transform="translate(4.509 264.433) rotate(-0.08)" fill="#fff"/>
      <rect id="Rectangle_14" data-name="Rectangle 14" width="144.73" height="278.92" transform="translate(25.643 288.634) rotate(-0.08)" fill="#2b5c6b"/>
      <ellipse id="Ellipse_3" data-name="Ellipse 3" cx="11.54" cy="11.82" rx="11.54" ry="11.82" transform="translate(85.85 576.13)" fill="#dbdbdb"/>
      <ellipse id="Ellipse_4" data-name="Ellipse 4" cx="2.31" cy="2.36" rx="2.31" ry="2.36" transform="translate(73.762 273.207) rotate(-0.08)" fill="#dbdbdb"/>
      <rect id="Rectangle_15" data-name="Rectangle 15" width="35.77" height="3.55" rx="1.5" transform="translate(86.452 273.769) rotate(-0.08)" fill="#dbdbdb"/>
    </g>
  </g>
</svg>
